<svg fill="none" height="24" viewBox="0 0 24 24" width="24" xmlns="http://www.w3.org/2000/svg"><path clip-rule="evenodd" d="m12.0029 2.99823c.27 0 .52.10503.71.29303.18.187.29.44197.29.70697v15.99997c0 .265-.11.52-.29.707-.19.188-.44.293-.71.293-.26 0-.5199-.105-.7099-.293-.18-.187-.2901-.442-.2901-.707 0-3.151 0-12.84898 0-15.99997 0-.265.1101-.51997.2901-.70697.19-.188.4499-.29303.7099-.29303zm6 2c.55 0 1 .448 1 .99999v11.99998c0 .552-.45 1-1 1s-1-.448-1-1c0-2.577 0-9.42298 0-11.99998 0-.55199.45-.99999 1-.99999zm-8.99998.99999c.27 0 .51996.10503.70996.29303.18.187.29002.44197.29002.70697v9.99998c0 .265-.11002.52-.29002.707-.19.188-.43996.293-.70996.293-.26 0-.51996-.105-.70996-.293-.18-.187-.29004-.442-.29004-.707 0-2.26 0-7.73998 0-9.99998 0-.265.11004-.51997.29004-.70697.19-.188.44996-.29303.70996-.29303zm11.99998 1c.55 0 1 .448 1 1v7.99998c0 .552-.45 1-1 1s-1-.448-1-1c0-1.916 0-6.08398 0-7.99998 0-.552.45-1 1-1zm-6 1c.55 0 1 .448 1 1v5.99998c0 .552-.45 1-1 1s-1-.448-1-1c0-1.537 0-4.463 0-5.99998 0-.552.45-1 1-1zm-8.99997 1c.27 0 .51996.10503.70996.29303.18.187.29004.44197.29004.70697v3.99998c0 .265-.11004.52-.29004.707-.19.188-.43996.293-.70996.293-.26 0-.51996-.105-.70996-.293-.18-.187-.29004-.442-.29004-.707 0-1.11 0-2.89 0-3.99998 0-.265.11004-.51997.29004-.70697.19-.188.44996-.29303.70996-.29303zm-3 1c.55 0 1 .44798 1 .99998v2c0 .552-.45 1-1 1s-1-.448-1-1c0-.611 0-1.389 0-2 0-.552.45-.99998 1-.99998z" fill="#000" fill-rule="evenodd"/></svg>